<svg id="Layer_1" data-name="Layer 1" xmlns="http://www.w3.org/2000/svg" viewBox="0 0 16.63 6.67"><defs><style>.cls-1{fill:#c8cbcc}</style></defs><title>Business-Insider-Logo</title><path class="cls-1" d="M4.14 4.09c.24-.06.26 0 .27-.36V1.67c0-.18-.06-.24-.24-.26a.14.14 0 0 1-.09 0h1.31a.54.54 0 0 1 .33.89 3 3 0 0 1-.23.25l.24.13a.76.76 0 0 1 .39.8.8.8 0 0 1-.66.61 1.69 1.69 0 0 1-.31 0h-1zm1.56-.62v-.13a.73.73 0 0 0-.7-.67c-.06 0-.13 0-.13.08v1a.24.24 0 0 0 .1.17.48.48 0 0 0 .73-.45zM4.85 2v.41c0 .14 0 .11.12.12a.42.42 0 0 0 .51-.47A.53.53 0 0 0 5 1.5c-.09 0-.14 0-.13.13s-.02.25-.02.37zm8.05 6h.1c.12 0 .16-.08.16-.19V6.05c0-.23 0-.24-.24-.28h-.08 1.46a1.58 1.58 0 0 1 .39.06 1 1 0 0 1 .77 1 1.15 1.15 0 0 1-.65 1.12 1.93 1.93 0 0 1-.88.16L13 8h-.1zm.67-1.2v.78c0 .26.05.27.26.31a1.18 1.18 0 0 0 .69-.06.71.71 0 0 0 .43-.44 1.43 1.43 0 0 0 0-.69 1.1 1.1 0 0 0-1.3-.85c-.11 0-.14.06-.14.16.06.24.06.5.06.76zm-1.45-2.71c.24-.06.25-.06.26-.32V1.89a1.52 1.52 0 0 1 0-.18l1.85 1.84V2.26c0-.23 0-.33-.31-.43h.86-.09c-.15 0-.2.11-.2.25v2.11a1.33 1.33 0 0 1-.18-.12l-1.56-1.55-.11-.1v1.26c0 .35 0 .32.3.41zM5.87 8c.24-.07.24-.07.25-.33V5.63a1.35 1.35 0 0 1 .17.12L7.94 7.3l.13.12V6.09c0-.27 0-.31-.29-.41h.77c-.18 0-.22 0-.22.31v1.85a.67.67 0 0 1 0 .16.63.63 0 0 1-.27 0L6.48 6.41l-.09-.08V7.6c0 .19 0 .3.28.37zm12.32-2.29a13.06 13.06 0 0 1 1.34 0 .51.51 0 0 1 .34.83 3.86 3.86 0 0 1-.34.39c.26.29.52.59.8.88a1.38 1.38 0 0 0 .36.18c-.34 0-.68.08-.92-.23l-.47-.62a.41.41 0 0 0-.4-.11.11.11 0 0 0 0 .08v.67a.14.14 0 0 0 .15.14.26.26 0 0 1 .15 0h-1c.19 0 .21-.06.21-.25V5.88a.18.18 0 0 0-.18-.19zm.68.64v.4c0 .14 0 .11.05.12a.54.54 0 0 0 .46 0 .62.62 0 0 0 .17-.72.52.52 0 0 0-.57-.3c-.08 0-.12 0-.11.13s0 .24 0 .37zM6.34 1.78h1c-.22.06-.23.06-.23.29v1.39a.55.55 0 0 0 .64.5.56.56 0 0 0 .58-.55V1.98a.15.15 0 0 0-.14-.16.37.37 0 0 1-.14-.05h.83c-.24.07-.23.07-.24.33s0 .8 0 1.2a.83.83 0 0 1-.88.8 2.1 2.1 0 0 1-.48 0 .81.81 0 0 1-.61-.87v-1.1c0-.37 0-.27-.25-.31zm10.33 0v.41c-.06-.26-.26-.25-.45-.25h-.35v.83a2 2 0 0 0 .79-.07v.49c0-.29-.18-.27-.35-.28-.37 0-.37 0-.37.33v.42c0 .14.06.22.21.24a2.46 2.46 0 0 0 .42 0 .24.24 0 0 0 .23-.2.5.5 0 0 1 0-.08 3.45 3.45 0 0 1-.06.39s-.09.06-.14.06h-1.41c.22 0 .23 0 .23-.28V2.04a.18.18 0 0 0-.18-.2.21.21 0 0 1-.12-.05zm.06 4.92h.79c0 .13 0 .27-.05.42 0-.3-.24-.26-.43-.26h-.31v.81c0 .11.1.17.2.18h.29c.27 0 .31 0 .4-.29a.57.57 0 0 1 0 .42.19.19 0 0 1-.12 0h-1.11A3.11 3.11 0 0 1 16 8c.3 0 .26-.22.26-.4V6.03c0-.23 0-.23-.25-.29h-.06 1.58v.41a.26.26 0 0 0-.3-.23h-.47zm1.69-4.44a.48.48 0 0 0-.69-.34.32.32 0 0 0-.08.57 2.7 2.7 0 0 0 .27.17c.11.07.23.13.33.21a.69.69 0 0 1 .26.77.67.67 0 0 1-.62.49 4 4 0 0 1-.66 0c-.1 0-.14-.07-.13-.17s0-.28 0-.41v.13a.47.47 0 0 0 .48.36c.27 0 .43-.09.5-.3a.36.36 0 0 0-.11-.39 3.74 3.74 0 0 0-.32-.23 2.69 2.69 0 0 1-.38-.28.59.59 0 0 1 .19-1 1.4 1.4 0 0 1 .86 0h.06v.44zm-9.2 1.25a.74.74 0 0 1 0 .08.54.54 0 0 0 .83.33.39.39 0 0 0 0-.63 3.22 3.22 0 0 0-.33-.22l-.21-.17a.62.62 0 0 1 .32-1.15 3.62 3.62 0 0 1 .59 0c.07 0 .1 0 .09.11s0 .25 0 .38a.37.37 0 0 0-.28-.33.51.51 0 0 0-.57.09.3.3 0 0 0 0 .45 1.69 1.69 0 0 0 .25.18c.13.08.26.15.38.24a.68.68 0 0 1 .27.76.64.64 0 0 1-.59.5 4.09 4.09 0 0 1-.69 0c-.1 0-.14-.08-.13-.18s0-.27 0-.4zM19 3.5a.46.46 0 0 0 .39.48.78.78 0 0 0 .36 0 .38.38 0 0 0 .15-.63 1.47 1.47 0 0 0-.25-.19c-.12-.08-.25-.15-.37-.24a.62.62 0 0 1 .33-1.15 3 3 0 0 1 .59 0 .13.13 0 0 1 .09.09 1.57 1.57 0 0 1 0 .38.26.26 0 0 1 0-.06.49.49 0 0 0-.84-.18.31.31 0 0 0 0 .45 1.53 1.53 0 0 0 .26.2c.13.09.28.16.4.26a.7.7 0 0 1 .25.8.73.73 0 0 1-.68.46h-.58a.13.13 0 0 1-.13-.16v-.43zM9.28 7.4v.12a.45.45 0 0 0 .41.37.47.47 0 0 0 .54-.21.38.38 0 0 0-.1-.49 4 4 0 0 0-.39-.25.93.93 0 0 1-.44-.47.57.57 0 0 1 .3-.72 1.36 1.36 0 0 1 .89-.06h.06v.45c0-.32-.38-.44-.68-.32a.31.31 0 0 0-.1.54 2.78 2.78 0 0 0 .33.22 3.63 3.63 0 0 1 .35.24.66.66 0 0 1 .2.73A.64.64 0 0 1 10 8a3.72 3.72 0 0 1-.64 0 .16.16 0 0 1-.17-.2v-.4zM5.39 8H4.26c.24-.06.26-.07.26-.34v-2c0-.2 0-.24-.24-.27a.07.07 0 0 1-.05 0h1C5 5.35 5 5.38 5 5.63v2.02c0 .25 0 .28.28.31h.1zm5.48-3.91c.27-.09.27-.1.27-.38V2.16c0-.28 0-.28-.25-.38h.93c-.17 0-.22.12-.22.27v1.72c0 .23 0 .24.26.25a.07.07 0 0 1 .06 0zM12.25 8h-1c.2 0 .23-.13.23-.29V5.96c0-.17-.12-.21-.25-.24h.9-.06c-.14 0-.18.09-.18.21V7.6c0 .3 0 .3.3.35z" transform="translate(-4.08 -1.37)"/></svg>