<svg id="Layer_1" xmlns="http://www.w3.org/2000/svg" viewBox="0 0 296.7 47.6"><style>.st0{fill:#fff}</style><g id="XMLID_1_"><path id="XMLID_417_" class="st0" d="M24 47.6c-13.7 0-24-10.2-24-23.8C0 10.2 10.3 0 24 0s24 10.2 24 23.8c-.1 13.5-10.4 23.8-24 23.8zM24 3C12 3 3 11.9 3 23.8c0 11.8 9 20.8 21 20.8 11.9 0 21-8.9 21-20.8C44.9 11.9 35.9 3 24 3z"/><path id="XMLID_414_" class="st0" d="M87.2 21.5H65.8V0h21.4C93.1 0 98 4.8 98 10.8c-.1 5.8-5 10.7-10.8 10.7zm-18.4-3h18.4c4.2 0 7.8-3.5 7.8-7.7C95 6.5 91.5 3 87.2 3H68.8v15.5z"/><path id="XMLID_413_" class="st0" d="M116 .3h3v47.3h-3z"/><path id="XMLID_422_" class="st0" d="M214.8 47.6c-13.7 0-24-10.2-24-23.8 0-13.6 10.3-23.8 24-23.8s24 10.2 24 23.8c0 13.5-10.3 23.8-24 23.8zm0-44.6c-11.9 0-21 8.9-21 20.8 0 11.8 9 20.8 21 20.8 11.9 0 21-8.9 21-20.8s-9-20.8-21-20.8z"/><path id="XMLID_184_" class="st0" d="M96.8 47.6L71.5 32.5c-.8-.4-1.5-.1-1.7 0-.3.2-.9.6-.9 1.5v13.6h-3V34c0-1.7.9-3.2 2.3-4.1 1.5-.9 3.2-.9 4.7-.1L98.3 45l-1.5 2.6z"/><g id="XMLID_183_"><path id="XMLID_408_" class="st0" d="M157.2 47.5h-.5c-6.9-.1-13.1-2.4-18.6-6.8l1.9-2.3c4.9 4 10.6 6.1 16.8 6.2h.5c5 0 9.1-1.4 11.6-4 1.8-1.8 2.7-4.2 2.7-6.9 0-3.5-1.5-7.7-12.3-9.1l-5.7-.6c-3.7-.5-14.9-1.9-14.2-11.7.5-7.4 7-12.1 16.7-12.1h.9c6.1.2 11.8 2.1 16.9 5.8l-1.7 2.4c-4.6-3.3-9.8-5.1-15.3-5.2h-.8c-7.9 0-13.3 3.7-13.7 9.3-.2 3.2.9 7.1 11.6 8.5l5.7.6c10 1.3 14.9 5.3 15 12.1 0 3.5-1.2 6.7-3.6 9.1-3.3 2.9-8.2 4.7-13.9 4.7z"/></g><g id="XMLID_406_"><path id="XMLID_123_" class="st0" d="M157.2 47.5h-.5c-6.9-.1-13.1-2.4-18.6-6.8l1.9-2.3c4.9 4 10.6 6.1 16.8 6.2h.5c5 0 9.1-1.4 11.6-4 1.8-1.8 2.7-4.2 2.7-6.9 0-3.5-1.5-7.7-12.3-9.1l-5.7-.6c-3.7-.5-14.9-1.9-14.2-11.7.5-7.4 7-12.1 16.7-12.1h.9c6.1.2 11.8 2.1 16.9 5.8l-1.7 2.4c-4.6-3.3-9.8-5.1-15.3-5.2h-.8c-7.9 0-13.3 3.7-13.7 9.3-.2 3.2.9 7.1 11.6 8.5l5.7.6c10 1.3 14.9 5.3 15 12.1 0 3.5-1.2 6.7-3.6 9.1-3.3 2.9-8.2 4.7-13.9 4.7z"/></g><path id="XMLID_2_" class="st0" d="M258.1 47.6h-3v-28c0-1.2.7-2.3 1.8-2.9 1.1-.6 2.4-.4 3.4.3l36.4 28.1-1.8 2.4-36.4-28.1-.4.2v28z"/><path id="XMLID_421_" class="st0" d="M293.2 30.4c-.7 0-1.3-.2-1.9-.6L254.9 2.4l1.8-2.4 36.4 27.3.4-.2V0h3v27.1c0 1.2-.7 2.3-1.8 2.9-.5.3-1 .4-1.5.4z"/></g></svg>