<svg id="Layer_1" data-name="Layer 1" xmlns="http://www.w3.org/2000/svg" viewBox="0 0 227.99 190.45"><defs><style>.cls-1{fill:#819097}</style></defs><title>Media-Player-Icon</title><path class="cls-1" d="M1.15 19.9v190.45h228V19.9zm225.06 187.52H4.08v-34.57h222.13zm0-37.49H4.08V60.32h222.13zm0-112.48H4.08V22.83h222.13z" transform="translate(-1.15 -19.9)"/><path class="cls-1" d="M112.53 18.72h2.93v2.93h-2.93zm-37.5 0h2.93v2.93h-2.93zm-37.54 0h2.93v2.93h-2.93zm112.53 0h2.93v2.93h-2.93zm37.54 0h2.93v2.93h-2.93zm-75.03 150.07h2.93v2.93h-2.93zm-37.5 0h2.93v2.93h-2.93zm-37.54 0h2.93v2.93h-2.93zm112.53 0h2.93v2.93h-2.93zm37.54 0h2.93v2.93h-2.93z"/><path class="cls-1" d="M115.15 76.16a39 39 0 1 0 39 39 39 39 0 0 0-39-39zm0 75a36 36 0 1 1 36-36 36.07 36.07 0 0 1-36 35.99z" transform="translate(-1.15 -19.9)"/><path class="cls-1" d="M132.77 115.12l-26.6-17.74v35.48zm-23.67-12.29l18.4 12.29-18.4 12.29z" transform="translate(-1.15 -19.9)"/></svg>