<svg id="Layer_1" data-name="Layer 1" xmlns="http://www.w3.org/2000/svg" viewBox="0 0 20.62 6.79"><defs><style>.cls-1{fill:#c8cbcc;fill-rule:evenodd}</style></defs><title>Time-logo-gray</title><path class="cls-1" d="M3.82 1.2h-2.1V2h-.1V.73H6.9v1.33h-.08V1.2h-2v6.1h.57v.15H3.25v-.12h.51V1.2zm5.35 6.3H7.18v-.17h.57V.94h-.57V.73h2.07v.16h-.59v6.34h.59v.16zM11.26 3s-.15.83-.37 2c-.11.63-.35 2.21-.37 2.31h.55v.16H9.49v-.13h.54c0-.08.15-.86.2-1.13.17-.91.68-4 .74-4.37s.12-1 .13-1.06h.37s.45 1.39.52 1.6S13.42 6 13.42 6s.64-1.52 1.22-3.15c.12-.33.27-.76.38-1.11l.34-1.02h.35s.09.62.12.9c.09.81.68 4.09.89 5.16.05.27.09.5.09.5h.57v.16h-2.15v-.11h.58v-.47c0-.21-.05-.4-.09-.65-.08-.48-.43-2.48-.54-3v-.14S14 5.83 13.77 6.38v.11l-.39 1H13l-1.69-4.41v-.1zm10.92-1h-.09c0-.12 0-.45-.05-.73H19v2.6h2.51c0-.16.06-.31.06-.43a.76.76 0 0 0 0-.09h.1V5h-.11c0-.18 0-.31-.06-.49v-.19h-2.46v2.73h3v-.92h.09V7.5h-4.57v-.16a4.39 4.39 0 0 0 .56 0V1L18 .93h-.45v-.2h4.63v1.25z" transform="translate(-1.62 -.72)"/></svg>