<svg id="Layer_1" data-name="Layer 1" xmlns="http://www.w3.org/2000/svg" viewBox="0 0 24 9"><defs><style>.cls-1{fill:#c8cbcc}.cls-2{fill:#819097}</style></defs><title>Wired-press-logo</title><path class="cls-1" d="M19.2 1.63h4.46v4.54H19.2zm-8.88 0h4.46v4.54h-4.46zM9.23 2.86v-.52H7.07v.52h.75v2h-.75v.52h2.16v-.47h-.82v-2z"/><path class="cls-2" d="M13.42 4s.46 0 .46-.87a.72.72 0 0 0-.76-.79h-1.77V5.4h.6V4.22h1c.35 0 .35.52.35.52v.67h.61v-.73C13.88 4 13.42 4 13.42 4zm-.63-.3h-.85v-.82h.86s.46-.07.46.37-.09.46-.47.46z"/><path class="cls-1" d="M15.6 2.35v.5h.42v2.06h-.42v.51h2.6v-1h-.51v.49h-1.11v-.83h.82v-.5h-.82v-.73h1.06v.49h.56v-.99h-2.6z"/><path class="cls-2" d="M22.88 4.3v-.86c0-1.23-1.36-1.08-1.36-1.08h-1.33v3.1h1.62a1.05 1.05 0 0 0 1.07-1.16zm-.61 0s0 .6-.48.6h-1v-2h.93s.52 0 .52.65z"/><path class="cls-1" d="M1.41 1.63h4.46v4.54H1.41z"/><path class="cls-2" d="M1.79 2.36h.61l.43 2.33.54-2.33.67.02.54 2.36.41-2.38h.59l-.63 3.06h-.76L3.7 3.19l-.53 2.24h-.75l-.63-3.07z"/></svg>